<svg xmlns="http://www.w3.org/2000/svg" id="Capa_2" viewBox="0 0 85.98 61.21"><defs><style>      .cls-1 {        fill: #ffd100;      }      .cls-2 {        fill: #fdfdfd;      }    </style></defs><g id="Layer_1"><g><g><path class="cls-2" d="M54.36,47.38c-.17,0-.2-.1-.25-.19.02-.14.21-.05.19-.25,0,0,.02,0,.03,0-.08-.27-.18-.53-.28-.78.02.05.03.1.03.16-.46.35-.25.83-.63,1.21-.09-.38.14-.73.11-1.12-.04-.11-.24-.09-.29-.2-.03-.59.57-.48.75-.11-.19-.48-.42-.94-.67-1.38-.14.35-.41.72-.67.94,0,0-.01,0-.02,0-.03.04-.06.08-.06.13-.05-.03-.04-.09-.01-.14-.5-.17-1.08-1.1-.11-1.03.12-.12.22-.25.33-.38.17.02.16.18.28.23.03,0,.06-.02.08-.03-.28-.45-.6-.86-.94-1.26-.07.28-.04.57-.26.84-.13-.37.07-.74,0-1.13-.05-.1-.25-.07-.3-.17,0-.06,0-.11,0-.15-.07-.06-.13-.13-.2-.2.05.11.1.21.1.36-.15-.02,0-.27-.2-.26.02-.05.07-.05.09-.1-.1-.09-.19-.17-.29-.26,0,.06.01.12.03.18-.08-.01-.15-.02-.23-.03,0-.01,0-.02,0-.03-.37-.06-.85-.54-.72-.82-.26-.18-.54-.35-.82-.5,0,.18.04.35.16.47-.12.09-.2.21-.43.18-.04.15.05.29-.01.35-.24.02-.1-.16-.11-.32-.1-.11-.25-.17-.26-.36-.17.08-.26-.13-.38-.21-.2.28-.49.02-.7.05-.49.08-.32.83-1,.82.05-.39-.37-.62-.67-.8-.12,0-.11.15-.27.11-.22-.07-.24-.28-.42-.29-.34-.02-.39.52-.71.48-.01-.17.02-.3.09-.39-.15-.33-.5-.61-.91-.42-.09-.03,0-.22-.03-.31-.19-.17-.26-.45-.43-.63-1.03.08-2,.3-2.91.65-.02.06-.07.07-.12.04-.35.14-.69.29-1.02.46-.07.12-.2.16-.31.17-1.64.93-3,2.28-3.94,3.91.15.17.21.42.04.63-.1-.04-.21-.06-.34-.08-.75,1.5-1.17,3.19-1.17,5v.06c0,5.97,4.52,10.75,10.61,10.75s10.67-4.84,10.67-10.81v-.06c0-1.06-.14-2.08-.41-3.04-.04,0-.07.03-.07.09M34.76,46.11c-.11-.02-.25-.01-.3-.08.05-.08.24.02.22-.17.12.05.15.15.08.25M36.26,44.4c-.12.07-.26-.04-.15-.16.12-.01.17.04.15.16M49.16,43.33c.13.02.07.28-.05.27,0-.1,0-.22.05-.27M47.64,45.13c-.13.14-.52.28-.71.06-.1-.48.83-.71.71-.06M46.61,41.95c.01.33.49.41.55.8-.2.12-.04.59.17.67-.18.3-.62.32-.87.55-.72-.58.05-1.37.15-2.02M45.94,42.2c-.11.16-.49.33-.7.13-.15-.47.75-.79.7-.13M45.34,44.46c-.1.08-.24.05-.22-.11.12,0,.07.13.22.11M44.52,43.64s.06.09.06.16c-.04.03-.09.03-.16.02,0-.1.08-.11.1-.18M44.22,44.11c.06.02.08-.02.09-.07.15,0,.04.17.13.21-.05.05-.12.08-.17.13-.05-.07-.04-.18-.04-.28M43.59,41.77c-.09.09-.23.08-.23-.09.12-.01.08.12.23.09M43.78,42.75c-.25-.09-.25.15-.46.21-.14-.42.49-.8.46-.21M43.34,43.63c-.12.02-.15-.06-.23-.09.04-.08.28-.04.23.09M43.07,43.64c.05.04.12.07.1.17-.1-.08-.15,0-.22-.11.02-.05.11,0,.12-.06M42.69,41.04c.05.03.07.09.07.16-.03.03-.09.04-.16.03,0-.1.06-.12.08-.19M42.61,42.2c-.03-.13.04-.15.08-.19.09.03.03.24-.08.19M42.52,41.46c.14-.02.06.17.15.2-.03.04-.07.07-.11.1.07.01.11.05.09.13-.1-.01-.25,0-.18-.14,0,0,0,0,0,0-.02-.06-.03-.14-.03-.21.07.02.07-.03.08-.07M42.41,42.35s.08.05.07.12c-.04.03-.11.05-.19.03.01-.08.11-.07.12-.15M42.44,44.81c-.12-.01-.12-.14-.15-.24.16-.02.24.14.15.24M42.14,41.31c.2,0,.18.38-.08.27.01-.1.02-.22.08-.27M42.32,42.55s0,.07.03.08c-.04.14-.21.02-.22-.07-.09.05-.25.15-.36.03.12-.16.34-.12.55-.04M42.07,44.36c-.13.02-.11-.08-.18-.1.03-.13.25-.04.18.1M41.87,40.23c-.26-.06-.24.17-.44.26-.19-.41.41-.84.44-.26M41.6,42.65c.02.13-.11.07-.14.14-.1-.06.03-.21.14-.14M41.25,41.18c.06.04.12.06.11.16-.1-.07-.15.02-.23-.09.01-.06.11,0,.12-.07M40.63,42.91c.24.19.36.13.59,0-.1.35-.48.25-.62.23.01-.08.02-.16.03-.23M40.67,44.43c-.22,0-.14.1-.32.22-.2-.18.08-.32.13-.46.07.07.17.11.18.24M40.48,42.61c.06.04.12.09.09.21-.12-.01-.18-.14-.09-.21M40.33,42.01c-.12.03-.12-.06-.19-.08.02-.13.24-.07.19.08M40.02,41.92c.1.02.14.08.13.17-.12,0-.17-.06-.13-.17M39.35,42.36c.11.21.36.13.61.25.05.13.02.33.1.43.17,0,.27.05.38.09-.2.58-.74-.04-1.17.23-.05-.27-.12-.67.07-1.01M36.96,45.19c0-.21.2-.16.24-.32.17.1-.17.24-.24.32M37.39,44.86c.08-.06.1,0,.19.03,0,.17-.22.1-.19-.03M37.78,46.33c-.13.06-.25-.07-.13-.18.12,0,.17.06.13.18M37.75,42.28c-.03-.11.01-.26-.07-.33.09-.12.25-.08.39-.02,0,.14-.04.25-.09.34-.11-.04-.12.05-.24,0M38.11,44.21c-.07.07-.11.19-.19.25-.12-.03-.03-.23-.03-.36.12,0,.15.09.3.08,0,.04-.05.02-.08.03M38.82,41.33c-.09-.12-.04.06-.16.02.01-.07-.04-.09-.02-.16.03-.05.15.01.16-.06.09,0,0,.14.01.2M49.23,50.46c0,3-2,5.56-5,5.56s-5.08-2.61-5.08-5.61v-.06c0-1.95.85-3.71,2.27-4.7-.17-.06-.36-.12-.54-.03-.03-.27-.05-.68.18-.99.09.22.34.17.58.31.03.14-.02.33.06.44.05,0,.08.01.12.02.68-.38,1.48-.61,2.36-.61.05,0,.1,0,.15,0,0,0,0,0-.01,0-.02-.13.05-.14.1-.18.07.03.03.16-.04.19.12,0,.23.02.34.03,0,0,0-.01,0-.02.12.03.12-.06.23-.03,0,.03.02.06.04.08,1.09.18,2.02.71,2.73,1.48.03-.47.48-.95.59-1.4-.02.33.44.46.47.85-.21.1-.1.58.1.68-.17.22-.49.26-.75.37.7.98,1.09,2.22,1.09,3.55v.06ZM50.06,45.3c-.09-.08-.12-.23-.15-.28.09-.11.26.18.15.28M50.35,44.73c-.01-.07.03-.07.08-.07-.03-.03-.04-.09-.03-.16.08.04.11.12.11.24-.05,0-.1,0-.15,0M50.65,46.83c.01-.1.02-.22.07-.26.12.03.04.28-.07.26M50.7,43.61c.09,0,.15.01.19.05,0,.11-.2.06-.19-.05M50.93,42.57c-.09-.03-.2-.04-.27-.09.01-.07.07-.09.16-.07-.13.15.15-.06.11.16M51.42,48.63c-.08-.09-.1-.25-.12-.29.11-.1.24.21.12.29M51.35,44.88c0-.11.07-.16.2-.15.02.14-.09.15-.2.15M51.92,48.11s-.1-.01-.15-.02c0-.07.04-.07.09-.07-.02-.04-.03-.09-.01-.16.07.05.1.13.08.25M52.23,47.01c.09,0,.14.03.19.06-.01.11-.21.04-.19-.06M52.56,46c-.08-.04-.19-.06-.26-.11.02-.07.08-.08.17-.06-.14.13.15-.04.09.17M52.75,48.34c.02-.11.09-.16.21-.13,0,.14-.1.14-.21.13M53.9,49.36c-.09-.07.05-.2.08-.26.16.08-.07.14-.08.26"></path><path class="cls-1" d="M73.14,40.15c-.07,0-.1.02-.12.07-.11,0,.06-.19-.04-.08-.07,0,.01-.07.02-.14h-3.5v1.26s.07.07.12.09c-.03.03-.07.04-.12.05v2.46s.07-.01.11-.01c.08.19.19.35.37.44-.08.12.05.23-.05.35-.2.05-.33-.03-.43-.13v6.45s.01-.02.02-.03c.1.02.06.14.05.24-.06.03-.15.02-.17.1-.05-.13.03-.2.09-.28l-2.67-3.61s-.07.1-.11.14c-.38-.06-.32-.31-.75-.26.03-.31-.25-.39-.44-.53.1-.4-.07-.5.11-.81.04,0,.09.02.13.03l-.65-.89c-.07,0-.07-.06-.15-.05.01-.03.03-.06.05-.09l-3.63-4.91h-5.11v2.09c.1-.26.2-.5.12-.87.29.11.56.21.83.29.21-.05.4,0,.52.13.02,0,.05.01.07.02.03.21.22.09.23.31.19-.17.1.05.25-.08.06.14-.23.22-.18.49.03.07.13.08.13.17,0,.2-.15.2-.17.37-.18-.05-.14.06-.29.12.06.54-.18.95-.33,1.25-.07-.1-.18-.05-.2.05-.14-.15-.28-.47-.18-.69-.09-.05-.28-.11-.44-.18.11-.34-.16-.53-.36-.63v1.58c.11-.09.28-.1.54.06-.27.02-.3.34-.54.52v2.15s.05-.01.06-.03c.06.04.01.12-.06.15v13.55h5.42v-11.41l8.47,11.41h4.77v-11.89c-.08.02-.16.03-.24.04.06-.12.18-.15.24-.26v-.86s-.1.03-.17.02c-.1-.1-.04-.21,0-.35.06,0,.11.01.16.03v-3.46c-.18-.03-.32-.01-.45.14-.14-.26-.16-.62-.35-.83.08-.04.1-.09.02-.16.17-.15.4-.23.62-.32-.03-.01-.04.03-.12.02-.01-.09.01-.15.05-.19.04,0,.08,0,.12,0,0,.05,0,.1,0,.15.04-.02.08-.03.12-.06v-2.83h-1.82s.04.09.05.15M57.41,44.63s-.14.04-.24.03c0-.15.27-.3.24-.03M56.53,46.11c.09-.02.2-.14.28-.04-.02.11-.17.05-.28.04M57,44.69c.11.09.09.2.04.28-.03-.02-.06-.05-.11-.05,0-.1.02-.19.07-.22M57.16,44.97c.06.01.01.12.08.12-.08.08-.22.09-.24.23-.17-.09.11-.25.17-.35M57.27,45.24c.16.08.08.22.03.35-.1-.04-.23-.06-.31-.13.01-.16.24-.1.28-.22M57.43,46.15c-.13-.14-.11-.2-.14-.4.08.09.26.23.14.4M57.35,46.41c.14,0,.12.13.22.16-.04.07-.38-.04-.22-.16M58.21,45c-.12,0-.24,0-.23-.12.13,0,.25-.08.23.12M61.92,40.89c0,.26-.25.4-.44.34.1-.17.23-.28.44-.34M61.11,41.76s.08-.05.08-.11c.19.06-.12.22-.2.11,0-.07.16-.13.12,0M60.51,42.73c.03.14.03.1.18.1,0,.1-.09.09-.17.09.03-.12-.08-.12-.13-.17-.03-.01-.04,0-.04.03-.1-.05.08-.1.16-.06M60.16,46.73c.03-.15.27-.03.19-.21.11-.04.13-.07.24,0,0,.04-.05.02-.08.03-.07.07-.11.15-.15.26-.1,0-.07-.08-.19-.06M60.29,47.77c-.12-.03-.04-.2-.21-.19.04-.22.31-.01.21.19M60.27,43.56c.1.15.24.25.33.4-.04.1-.04.22-.16.23-.03-.23-.26-.4-.17-.63M60.32,42.2c0,.14.05.15,0,.27-.21-.02-.23-.27,0-.27M60.63,48.17c-.07-.07-.05,0-.15-.02.02-.12-.04-.11-.08-.25.06.1.3.07.24.27M60.12,41.37c.09,0,.18,0,.27,0-.02.15-.12.23-.17.35-.24-.02-.11-.3-.18-.4.03-.07.09-.02.08.04M59.84,40.35c.13-.03.06.12.07.2-.14.02-.13-.14-.07-.2M59.96,42.42c.02.11-.08.07-.08.15-.05-.04-.12-.06-.11-.16.08-.07.07.03.19,0M59.95,43.97c-.01.08-.11.07-.12.15-.15-.07.02-.27.12-.15M59.45,41.7c-.11,0-.21,0-.19-.12.11-.04.22-.05.19.12M59.18,43.91c-.08-.07-.05,0-.15,0,0-.12-.05-.1-.11-.24.07.09.31.04.26.24M58.96,42.27s-.05.03-.08.04c-.06.07-.1.17-.13.27-.09.01-.08-.07-.19-.05.02-.15.26-.05.16-.23.1-.05.12-.08.23-.03M58.8,43.55c-.12-.02-.06-.2-.23-.17.02-.23.31-.04.23.17M58.26,41.23c0-.08,0-.15,0-.23-.3.23-.29-.31-.57-.33.16-.1.31-.04.47-.02.3-.3.37.28.53.45-.18-.02-.25.08-.43.14M58.52,49.01c.06.02,0,.12.06.13-.09.07-.23.07-.26.2-.16-.11.13-.24.2-.33M58.6,49.3c.15.09.06.22,0,.35-.1-.05-.22-.08-.29-.16.03-.16.24-.07.3-.19M58.67,50.21c-.12-.15-.09-.21-.1-.41.07.1.24.26.1.41M58.55,50.47c.13.01.11.15.21.18-.05.07-.38-.07-.21-.18M58.8,48.7c-.05.04-.14.02-.24,0,.02-.15.3-.27.24,0M58.96,46.68c-.29-.21-.17-.65-.21-1.05.42-.19.84.1.76.46-.07.3-.48.25-.55.59M59.56,49.16c-.12-.02-.24-.03-.21-.15.13,0,.26-.06.21.15M59.28,45.35c-.18.04-.31-.12-.39.03-.16-.05-.31-.11-.34-.29.12-.18.22-.39.44-.45.05-.09-.11-.17,0-.2.13.03.34.2.51.34.15-.06.3,0,.44.03.32-.27.34.32.48.5-.18-.04-.26.05-.44.1.01-.08.02-.15.03-.23-.27.16-.27-.16-.41-.31.06.23-.28.26-.33.49M60.59,49.61c-.18.02-.3-.16-.39-.01-.15-.07-.3-.14-.31-.32.14-.16.25-.36.48-.4.06-.09-.09-.18.03-.19.15.05.4.31.56.47.05.24-.31.23-.38.46M61.12,46c-.11,0-.21-.02-.18-.14.11-.03.22-.03.18.14M60.92,43.45c.04-.11.11-.19.26-.16-.03.13-.14.15-.26.16M60.83,42.42c-.3-.22-.11-.41.01-.66.16.02.2.1.35.05-.16.16-.45.27-.36.62M61.25,48.45c-.14-.08.04-.26.14-.14-.02.08-.11.06-.14.14M61.46,46.91s-.11-.08-.09-.17c.08-.06.06.03.19.03.01.11-.09.07-.1.15M61.65,44.69c.13-.02.04.13.05.21-.14,0-.12-.16-.05-.21M61.86,48.57c0-.23-.22-.43-.11-.64.08.16.22.28.29.43-.05.09-.06.22-.19.21M61.9,46.85c-.21-.04-.2-.3.04-.27-.01.14.03.16-.04.27M61.89,46.1c-.23-.04-.08-.31-.14-.41.03-.06.09-.01.07.05.09.01.18.02.27.04-.04.14-.14.21-.2.33M62.14,45.53c-.11-.03-.19-.1-.27-.16.04-.08.12-.11.24-.11-.02.12.06.14.03.27M62.53,45.47c.03-.16.11-.07.23-.07,0,.1-.13.07-.23.07M62.66,46.21c0-.07.17-.11.12.02.05-.01.08-.04.09-.1.18.08-.14.21-.21.09M63.27,46.46c-.02.1-.11.13-.12.23-.15-.05-.04-.28.12-.23M63.42,50.08c-.11-.05-.18-.12-.25-.19.04-.08.13-.1.25-.09-.04.12.05.15,0,.28M63.24,47.36c.04-.08.1-.13.24-.11-.05.08-.14.21-.24.11M63.19,45.73c.11-.15.26-.26.47-.29-.03.26-.29.37-.47.29M63.71,43.4c.08,0,.1.04.15.06,0,.07-.06.08-.06.15-.12,0-.11-.1-.09-.21M63.7,47.69c.24-.1.05-.22.17-.38.15.05.01.16.07.32-.08.02-.11.09-.23.07M63.81,50.06c.05-.16.11-.06.24-.04-.02.1-.14.06-.24.04M64.01,44.31c-.08.07-.2,0-.27,0,.15-.05.23-.27.39-.1.04.1-.24.06-.12.11M64.44,51.12c-.03.09-.12.11-.15.21-.15-.06-.01-.28.15-.21M64.32,52.01c.04-.08.11-.12.25-.09-.05.07-.16.19-.25.09M64.98,52.34c-.08.01-.12.08-.24.04.25-.08.07-.21.21-.37.15.07,0,.16.03.32M65.29,45.78c.08,0,.1.04.15.06-.02.06-.08.08-.16.06,0-.04.01-.08.02-.12M65.39,49.05c-.09.06-.2-.02-.27-.04.16-.04.26-.25.4-.06.03.1-.24.03-.13.1M65.41,47.76c.14,0,.18.07.26.11-.05.14-.31.03-.26-.11M66.45,49.91c-.11.02-.09-.07-.19-.06.03-.05.07-.09.1-.14.05.03.09.07.14.1-.03.03-.05.06-.05.11M66.52,48.54c-.1-.02-.06-.14-.05-.24.14-.02.03.16.05.24M68.17,52.18c-.13,0-.18-.17-.08-.25.04,0,.08.01.12.02-.01.08-.02.16-.03.23M69.56,52.57s-.2-.05-.23-.03c0-.13.08-.06.12-.3.08,0,.1.04.15.06-.05.09-.05.12-.04.27M69.58,49.63c.11-.02.09.07.19.07,0,.1-.28.1-.19-.07M69.84,46.29c.08-.06.02-.1.03-.19.13,0,.13.24-.03.19M74.78,45.63c.12.01.12.12.13.21-.07-.01-.1.01-.13.06-.11,0,.08-.19-.03-.08-.08-.02.06-.09.03-.19M74.6,50.87c.2.09-.07.24-.19.21.08-.05.13-.13.19-.21M73.18,43.57c-.04.14-.18.15-.26.24-.01.01.19-.38-.02-.4.15-.21.13.16.29.16M73.19,45.41c.07-.06.12-.14.16-.23.21.07-.05.25-.16.23M73.43,44.62c.06,0,.13.02.19.03-.01.15-.09.21-.22.21-.07-.09.03-.11.03-.23M73.3,47.86c-.06.1-.35.09-.26-.11.14-.05.14.06.26.11M73.28,50.29c-.03.1-.12.11-.21.13.03-.05.07-.09.1-.14.04,0,.08.01.11.02M72.47,41.9c.15.05.18.18.23.31-.04-.01-.07,0-.08.03-.02-.15-.11-.16-.21-.19,0-.08.04-.1.06-.15M71.26,47.03c.05-.16.12-.06.24-.05,0,.04-.01.08-.02.12.4.09.72.31,1.15.47-.13.18-.14.32-.3.51-.32-.35-.72-.21-1-.45.13-.09.2-.25.26-.44-.04-.16-.22,0-.33-.16M72.24,46c-.05.16-.47.26-.54.06.23.03.28-.15.54-.06M71.78,44.89c.02-.06.06-.09.08-.15.04,0,.08,0,.12,0-.02.1-.11.13-.2.15M72.58,44.18c-.09-.06-.05-.1-.03-.2.06,0,.06.04.11.05.02.11-.08.07-.08.15M72.47,42.77c-.04.11.05.1.03.2-.12.02-.08.03-.19,0,.04-.07.13-.11,0-.15.01-.05.1-.03.16-.03M71.81,41.3c.08-.06.26,0,.39.01-.06.17-.17.26-.38.22.04-.11-.05-.12,0-.24M71.83,42.32c.24-.1.38.11.54-.02.03.27-.5.28-.71.33,0-.16.19-.11.17-.31M71.48,42.23c.14-.07.14.05.27.09-.05.1-.34.12-.27-.09M71.26,45.38c.02-.1.1-.13.2-.15-.07.05-.06.18-.2.15M71.39,44.38c-.13-.02-.2-.08-.21-.19.11-.08.26.03.21.19M70.71,41.07c.06,0,.13.02.19.03-.01.09-.26.18-.19-.03M70.23,41.43c.12.04.04.11,0,.2-.06,0-.13-.02-.19-.03-.01-.15.16-.06.18-.17M69.59,43.03c.08-.06.11-.18.24-.19-.03.12-.09.2-.24.19M69.97,47.6c.07-.12.03-.13.04-.27.04,0,.08.01.12.02-.08.13.04.26-.15.26M69.77,42.29c.12-.1.17-.27.21-.46-.06-.16-.22.03-.34-.13.03-.16.11-.07.23-.07,0,.04,0,.08,0,.12.11.01.21.04.32.06.02-.03.04-.06.04-.11.07,0,.09.07.07.14.24.08.48.18.76.25-.11.19-.1.34-.25.54-.35-.31-.74-.14-1.04-.35M70.92,42.87c-.07.15-.27.14-.31-.05.09.01.15,0,.16-.07.08.01.07.11.15.12M70.25,44.25s.03-.29.2-.23c0,.07.05.09.03.16-.12-.02-.15.05-.23.07M70.54,44.62c.05-.07.1-.14.15-.22.06,0,.06.05.11.05,0,.1-.08.11-.1.18-.07-.08-.05,0-.15-.02M71.25,49.98c-.34.05-.43-.22-.57-.39,0-.11.15-.26.05-.35.07-.05.16-.1.28-.08.06.2.15.37.33.48-.1.11.03.24-.09.34M71.08,48.34c.09-.05.13-.16.26-.16-.04.11-.11.19-.26.16M71.85,49.59c-.12-.04-.16.03-.24.04,0,.01.06-.29.22-.21-.02.07.04.09.02.16M72.11,48.25c.09.02.15.01.16-.06.08.02.06.11.14.14-.08.14-.28.11-.3-.08M72.5,50.85c.03-.1.12-.12.21-.13-.07.04-.07.18-.21.13M72.7,42.83c-.1.07.07-.07.09-.1.1,0,.11.08.18.1-.02.1-.08.14-.17.13.03-.12-.02-.19-.1-.13M72.87,51.57c.22.05.3-.12.55,0-.06.15-.5.21-.55,0M73.93,49.8c-.08-.07-.04-.1-.01-.2.06,0,.06.05.11.06.01.11-.09.07-.1.14M73.98,48.58c-.12.01-.08.02-.19-.03.04-.06.14-.1.02-.15.02-.05.1-.02.16-.02-.05.11.04.11.01.2M73.92,47.91c0,.27-.53.23-.74.25.01-.16.2-.09.2-.29.25-.07.37.14.54.04M73.66,43.01c-.04.2-.26.2-.43.26.06-.16.23-.18.25-.38.11,0,.13.08.19.12M73.51,41.88c-.02.09.07.09.03.2-.12-.01-.16.1-.35.1-.11-.09-.06-.21-.03-.35.14,0,.25.01.35.05"></path></g><g><path class="cls-1" d="M83.5,2.04h.21c.25,0,.44-.08.44-.28,0-.18-.13-.29-.41-.29-.12,0-.2.01-.25.02v.55ZM83.49,3.12h-.44v-1.93c.18-.02.42-.06.74-.06.36,0,.53.06.65.15.12.08.2.22.2.41,0,.24-.18.39-.4.46v.02c.19.06.28.21.34.47.06.29.1.4.14.47h-.47c-.06-.07-.09-.24-.15-.47-.04-.2-.15-.29-.4-.29h-.21v.76ZM83.78.59c-.83,0-1.47.69-1.47,1.54s.64,1.54,1.49,1.54c.83.01,1.46-.68,1.46-1.53s-.63-1.55-1.47-1.55h-.01ZM83.8.2c1.09,0,1.95.85,1.95,1.93s-.86,1.94-1.96,1.94-1.97-.86-1.97-1.94.88-1.93,1.97-1.93h.01Z"></path><path class="cls-2" d="M23.22,23.27c-.16-.25.06-.5.09-.53.08-.09.19-.14.33-.13.25.02.15.38.06.51-.09.14-.31.39-.48.14M20.68,30.58s-.26.31.03.4c.29.09.31.26.26.49-.05.23-.47.5-.47.5,0,0-.19.08,0,.26.19.19.59.36.44.4-.15.04-.31-.03-.52-.15-.2-.13-.6-.2-.84-.15-.24.05-.47.01-.47.01,0,0-.55-.08-.54-.36s.39-.3.39-.3c.14,0,.12.03.22.05.06.02.08.04.29.07.27.04.25-.36.25-.36.01-.19.26-.39.26-.39.38-.26.15-.65.15-.65,0,0-.19-.28-.08-.5.11-.23.68-.65.75-.7s.24-.18.35,0c.11.18.08.45.08.45.06.5-.57.93-.57.93M17.84,29.96s-.21.05-.6-.11-.16-.51-.16-.51c0,0,.05-.1.16-.1.25,0,.34.18.57.45.23.28.04.28.04.28M16.24,29.42c.13.08.26.26.23.38-.04.11-.2.06-.28.03-.08-.04-.19-.01-.19-.01,0,0-.6,0-.59-.39.01-.39-.28-.49-.28-.49-.06-.04-.18-.13-.16-.21.01-.09.06-.06.2-.11.14-.05.28-.26.28-.26,0,0,.15-.16.26-.01s.23.09.23.09c0,0,.1-.18-.01-.31-.11-.14-.06-.23-.06-.23,0,0,.1-.21.33.04.23.25.24.15.64.29.4.14.63.5.57.58-.06.08-.21.04-.34-.01-.13-.05-.34-.09-.34-.09,0,0-.47-.11-.67.16-.2.28.06.5.19.58M16.44,35.34c-.05.3-.31.18-.37.17-.06-.02-.32-.21-.32-.21-.24-.26.08-.39.15-.46.15-.14.31.08.31.08.28.24.23.43.23.43M15.51,33.7c-.06.21-.35,0-.35,0,0,0-.2-.1-.13-.25.07-.15.31-.08.34-.06.08.06.2.1.14.31M15.38,34.64c-.06-.08-.29-.15-.48-.18-.19-.02-.24-.08-.26-.23-.02-.14-.12-.27-.12-.27-.05-.1-.08-.08-.04-.17.05-.08.17.01.17.01,0,0,.23.19.54.49.31.3.25.43.19.35M14.58,35.6c-.17.17-.61-.21-.61-.21-.46-.35-.41-.87-.41-.87,0,0-.03-.4.23-.11.26.29.47.55.69.79.21.24.21.29.11.4M13.25,32.65c.01-.13.07-.13.17-.12.1.01.2.16.26.23.06.07.16.17-.12.24-.28.07-.32-.27-.31-.35M14.06,32.43c.14.02.41.31.44.33.05.04.13.31-.14.37-.27.06-.25-.17-.35-.33-.1-.17-.1-.23-.1-.23,0,0,0-.17.14-.14M17.48,25.87s.33-.11.33.25-.34.31-.34.31c0,0-.23-.04-.25-.28-.03-.24.26-.29.26-.29M7.92,29.99c-.06-.04-.2-.21-.2-.21,0,0-.82-.97-.96-1.17-.14-.2.09-.31.09-.31,0,0,.31-.18.6.08.29.25.25.61.25.61,0,0-.01.41.13.61.14.2.15.43.09.39M6.81,30.72c-.06.03-.1.04-.33-.21-.23-.25-.13-.36-.13-.36.13-.15.33-.06.33-.06.16.06.2.18.2.18.08.46-.01.44-.08.46M4.47,33.38s-.23,0-.2-.19c.03-.19-.06-.31-.06-.31-.11-.19.01-.21.01-.21.38-.06.47.2.47.2.2.51-.21.51-.21.51M2.66,32.56c-.25-.15-.29-.54-.29-.54-.03-.24.13-.18.13-.18.28.09.36.29.44.4.08.11-.03.46-.28.31M1.91,30.4c-.09.07-.16.03-.23.02-.08,0-.18-.02-.17.15.01.17.05.32.05.39s-.08.15-.19.06c0,0-.39-.28-.47-.71,0,0-.04-.16.14-.16s.16-.02.23-.05c.08-.04.3-.09.49.02.19.11.23.21.14.29M6.06,19.12c-.1.12-.3.14-.34.06-.04-.08-.1-.09-.1-.09-.17-.08-.09-.23-.09-.23.19-.19.41,0,.41,0,0,0,.22.14.12.26M12.12,10.42c-.46,0-1.44.1-1.98.26l.31-2.75h11.31V0H3.36L.96,21.69h5.23s-.72-.57-.72-.57c0,0-.03-.21-.37-.16,0,0-.35.13-.52-.31,0,0-.2-.35.2-.36,0,0,.36.05.65.36,0,0,.57.44,1.14.16,0,0,.02-.03.05-.08.21-.38.46-.73.75-1.05-.06-.05-.22-.22-.25-.48,0,0,.26-.08.56-.08,0,0,.24.11.5-.2,0,0,0,.01-.02.04.95-.72,2.13-1.15,3.42-1.15,3.13,0,5.68,2.55,5.68,5.68s-2.55,5.68-5.68,5.68c-1.92,0-3.61-.96-4.64-2.42-.02-.03-.04-.05-.06-.08-.04-.05-.07-.11-.11-.17-.04-.07-.08-.13-.12-.21-.04-.07-.08-.15-.12-.22-.15-.29-.29-.61-.4-.95H.61l-.1.93h0l-.5,4.53c1.42,2.31,3.5,4.16,5.98,5.29,0,0-1.1-.94-1.91-2.05,0,0,.66.69,1.52.86,0,0,.35.06.44-.19,0,0,.17-.31-.29-.54,0,0-.65-.25-.58-.67,0,0,.02-.36.33-.42,0,0,.21-.04.29-.17.08-.13.33-.31.48-.13.15.17.25.31.52.25,0,0,.29-.13.23.21,0,0-.13.34.13.4,0,0,.36.11.29-.46,0,0-.1-.27-.46-.5,0,0-.29-.15-.27-.48,0,0,.13-.36-.27-.5,0,0-.25-.08-.52-.06,0,0-.5,0-.54-.34,0,0-.04-.38.42-.34.46.04.61.19.61.19,0,0,.17.19.56.15.28-.03.31.08.31.08,0,0,.12.21-.17.33-.29.11-.06.25-.06.25,0,0,.23.29.52.21.29-.08.19-.13.23-.27.04-.13.27-.19.46.06.19.25.25.36.29.59.04.23-.13.17-.35.04-.21-.13-.33-.25-.42-.11,0,0-.12.13,0,.25.12.11.1.27-.02.36-.12.1-.1.25.13.36,0,0,.08.08.25.02.17-.06.36.04.33.25-.04.21.12.31.12.31l.63.71s.13.19.17-.02c0,0,.1-.63-.42-1.15,0,0-.21-.13-.1-.25.12-.11.17-.11.38-.08,0,0,.29.04.36-.27.08-.31-.12-.67-.77-1.03-.65-.36-.25-1.05-.25-1.05,0,0,.13-.17.33,0,.19.17.35.48.44.73.1.25.4.71,1,.65,0,0,.4,0,.29-.42,0,0,.48.59.58,1.01.1.42-.4.4-.4.4,0,0-.12-.02-.21-.06,0,0-.36-.31-.77.13-.4.44.04,1.09.17,1.21.13.11.54.57.71.94.17.36.67.94,1.38.86.71-.08.63-.19.67-.4.04-.21-.15-.38-.5-.54-.35-.15-1-.38-1.25-.8,0,0-.08-.17.08-.19.15-.02.37-.08.23-.38-.13-.31.13-.38.33-.38s.73-.02.71.29c-.02.31-.27.42.08.73.35.31,1.09,1.32,2.04,2.07,0,0,.13.13.25.13.01,0,.06.01.13.04,5.91-1.48,10.3-6.83,10.3-13.19,0-7.5-5.57-13.09-13.07-13.09"></path><path class="cls-2" d="M32.9,27.63c.06.11.06.07.15.11.26.11.44-.04.44-.04,0,0,.24-.2-.12-.51-.36-.31-.84-.36-.93-.31-.23.11-.23.33.06.38.27.04.4.38.4.38"></path><path class="cls-2" d="M30.71,29.06c.25-.6-.2-.86-.2-.86-.24-.1-.31.04-.31.04-.15.16-.06.32-.03.48.04.15.14.12.02.41-.12.29.05.36.05.36,0,0,.22.18.46-.43"></path><path class="cls-2" d="M36,25.49c.13-.19.16-.47.07-.67-.13-.27-.56-.08-.56-.08-.66.27-.98,1.22-.98,1.22-.03.09-.04.15.03.21.12.1.28.04.37-.03.17-.12.2-.35.54-.38.31-.03.46-.16.53-.26"></path><path class="cls-2" d="M33.68,29.6c-.22-.27-.31-.44.09-.71.4-.27.43-.38.47-.53.06-.21-.06-.47-.59-.29-.36.12-.53.35-.52.53.01.23.29.2-.05.63-.34.42-.85.54-1.08.33-.29-.27-.8-.04-.8-.04-.59.23-.94.79-.94.79h4.07c0-.41-.44-.44-.66-.71"></path><path class="cls-2" d="M51.91,25.51c-.2.09-.24.1-.29.18-.05.08-.29.2-.39.03-.1-.17-.16-.48.13-.42.05.01.12-.01.18-.12.07-.1.26-.2.35-.07.09.13.21.3.01.39M51.87,28.12s-.12.09-.51-.15c0,0-.48-.47-.8-.32,0,0-.18.12-.36.3-.12.12-.33.19-.48,0-.1-.12-.21-.08-.21-.08,0,0-.08.04-.2.16,0,0-.2.16-.43-.11-.06-.07-.1-.14-.11-.2-.17.06-.36.03-.43.02-.1-.02-.33-.24-.3-.42-.14-.04-.26-.2-.26-.2,0,0-.12-.1-.07-.22.03-.07.07-.1.12-.11-.02-.03-.03-.07-.01-.1.04-.1.2-.06.2-.06.66.14.93.56.93.56.04.08.09.12.11.18.12-.03.34-.05.59.06.41.19.52.17.75,0,.22-.16.28-.32.31-.44.03-.12.05-.16.18-.15.16.02.24.21.26.31,0,0,.14.52.6.79,0,0,.25.15.12.19M50.31,31.65c-.07.08-.12.13-.22.16-.1.03-.23-.05-.22-.2.02-.15-.1-.35-.2-.43-.1-.08-.12-.25.02-.35.13-.1.61-.05.78.23.17.28-.17.58-.17.58M48.74,31.92c.13-.1.26.04.26.04,0,0,.17.2-.01.31-.18.11-.3.06-.36-.04-.05-.11.11-.31.11-.31M49.58,34.39c-.14.18-.45.15-.54.13-.09-.02-.3-.22-.26-.38.04-.16-.09-.33-.09-.33,0,0-.14-.11-.11-.19.03-.09.17-.05.17-.05.57.12.8.48.8.48.08.13.16.16.02.34M48.16,34.4c-.07.17-.2.2-.37.11-.17-.09-.19-.22-.13-.3.06-.09.43-.04.43-.04.09.09.14.06.07.23M48.67,24.61c.15-.11.3.05.3.05,0,0,.2.24-.01.36-.21.12-.35.08-.41-.05-.06-.12.13-.36.13-.36M47.35,26.98c-.17.07-.2,0-.35-.18-.15-.18.03-.32.03-.32.17-.07.13.05.23.15.1.1.25.28.08.35M47.33,27.6c-.08.2-.23.23-.43.13-.2-.1-.22-.25-.15-.35.07-.1.5-.05.5-.05.1.1.17.07.08.27M47.12,34.11c-.15.1-.28.04-.28-.02s-.09-.19-.09-.19c0,0-.09,0-.09-.11s.21-.13.21-.13c.04,0,.14-.07.14-.07,0,0,.2-.03.27.08.08.12,0,.32-.15.42M46.01,32.57c-.03-.07-.05-.11-.13-.24-.08-.13-.19-.21-.13-.29.06-.08.22.01.22.01,0,0,.1.09.38.26.28.17.86.82.86.82,0,0-.32-.16-.69-.23-.37-.07-.48-.26-.51-.33M46.03,31.39c-.12.02-.27-.07-.27-.23s.17-.13.17-.13c0,0,.11.01.2.11s.02.23-.1.25M45.69,27.02s-.11,0-.11-.13.25-.15.25-.15c.05,0,.16-.08.16-.08,0,0,.23-.04.32.1.09.14,0,.37-.18.49-.18.12-.33.05-.33-.02s-.11-.22-.11-.22M45.42,25.79c-.36-.07-.46-.25-.49-.32-.03-.07-.05-.11-.12-.23-.08-.12-.18-.2-.12-.28.06-.08.21,0,.21,0,0,0,.1.09.36.25.27.16.83.78.83.78,0,0-.31-.15-.66-.22M44.91,31.65c-.03-.08-.25-.19-.36-.26-.1-.08-.18-.25-.17-.43.01-.18.2-.1.2-.1.38.19.48.61.48.61.03.26-.12.25-.15.18M45.4,23.4s.07-.08.31.24c.23.31.07.45.07.45,0,0-.2.09-.4-.23s.02-.45.02-.45M45.79,21.26s.08-.22.17-.08c.09.14.34.3.57.44.23.14.16.1.17.3.01.2-.04.07-.08.24-.05.17-.19.02-.19.02,0,0-.05-.08-.29-.13-.24-.05-.29-.13-.29-.13-.29-.23-.05-.66-.05-.66M46.8,25.94c.06.09.14.09-.04.2-.18.11-.33-.06-.33-.06,0,0-.28-.36,0-.46.28-.1.31.09.31.09v.06c0,.06.05.17.05.17M47.05,25c.1-.08.27-.04.3.2.03.24-.14.15-.14.15-.03-.09-.12-.05-.12-.05,0,0-.09.07-.13-.06-.04-.13.09-.24.09-.24M46.64,17.07c-.08.13-.15.05-.15.05,0,0-.02-.07-.12-.16-.16-.14-.06-.35-.06-.35,0,0,.03-.17.22-.03.19.14.2.36.12.49M46.04,16.03s-.13.15-.16.28c0,0-.05.07-.08-.02,0-.03-.02-.02-.02-.11,0-.04.02-.15-.14-.33s-.32-.38-.25-.61c.07-.23.19-.14.19-.14,0,0,.08.07.17.07s.13.08.2.17c.06.1.3.39.1.68M38.05,24.39c.15-.02.3-.16.3-.16,0,0,.05-.08.14-.21.06-.08.24.02.24.02.17.13-.1.32-.19.4-.08.08-.2.24-.24.33-.04.09-.36.26-.55.01-.2-.27.29-.39.29-.39M39.44,28.04c.04-.07.12-.13.18-.01.06.12.15.33.08.44-.07.12-.18.1-.28-.05-.1-.15.02-.38.02-.38M38.43,27.44c-.1.06-.24.11-.39-.13-.15-.24-.01-.39-.01-.39,0,0,.14-.09.32.06.18.15.19.39.09.45M38.24,29.62c-.03.14-.13.23-.27.18-.14-.05-.25-.21-.24-.28.01-.06-.03-.23-.13-.3-.1-.08-.05-.2-.05-.2.09-.09.22-.03.48.1.27.13.23.37.2.5M34.15,21.96c-.14.04-.17.24-.09.31.08.08.12.08.12.17s-.17.11-.17.11c0,0-.1.08-.29-.18-.19-.26-.37-.13-.37-.13,0,0-.21.09-.57-.15-.36-.24-.18-.94-.18-.94.03-.1.12-.08.18.03.06.11.1.16.47.47.37.31.74.05.88.03.13-.02.46-.02.43.12s-.28.12-.42.16M30.89,24.64c-.09.04-.24.05-.38-.16-.14-.21-.04-.31-.04-.31.07-.05.13-.03.36.12.23.15.15.32.06.36M30.11,20.31c-.01.13-.17.12-.26.07-.09-.04-.29.07-.35.04-.06-.03-.29.03-.25-.29.04-.32.03-.26-.06-.38-.09-.12-.07-.25.04-.3.12-.06.16.03.26.03,0,0,.68.16.67.43-.01.28-.04.26-.06.39M30,26.01c-.17.06-.25-.07-.3-.12-.15-.17-.04-.38-.04-.38.14-.09.24-.02.31.04.07.07.19.4.02.45M28.37,24.97c-.02.11.06.09.14.33.02.07-.03.24-.13.14-.1-.1-.36-.16-.35.06,0,.09.14.52-.25.28-.1-.06-.19-.22-.21-.38-.02-.24.14-.35.14-.35.26-.24.28-.29.23-.48-.05-.19.07-.28.22-.24.15.04.25-.52.43.04.19.6-.18.27-.22.59M51.19,22.32V.01h-12.07l-12.38,21.9v8.4h3.18c-.03-.19-.24-.36-.71-.66-.86-.56-.93-.91-.93-.91.22-.11.62-.05.74.11.12.16.23.24.39.11.16-.13.23-.47.18-.63-.05-.16-.24-.24-.04-.7.21-.46.6-.89.79-.86.2.02.34,0,.43.45.06.32.35.49.35.49.19.1.45-.02.5-.28.05-.26.05-.46-.2-.69-.48-.43-.47-.92-.44-1.06.11-.51.32-.72.56-.54.09.07.27.16.42-.02.09-.11.21-.34.46-.18.28.18-.1.36-.11.62-.02.26.02.4.3.59.3.2.25.45.43.53.21.1.26-.26.26-.26,0-.3-.16-.43-.29-.51-.18-.11-.2-.25-.2-.25-.06-.33.28-.22.42-.34.1-.08.13-.11.11-.32-.02-.21.09-.3.09-.3.13-.06.24,0,.3.11.07.13.31.26.31.26.26.08.38-.03.54-.37s.46-.25.58-.28c.42-.13.39-.62.3-.86-.16-.42-.01-.52-.01-.52.22-.13.45.27.45.27.51.64.53,1.03.48,1.3-.03.17-.14.46.05.66.3.3.49-.05.59-.09.1-.05.16-.18.33.03.16.21.06.46.06.46-.27.36-.39.03-.71-.01-.54-.08-.24.35-.56.72-.19.22-.35-.27-.59-.05-.14.13-.48.43.16,1.05.27.26.65.29.93,0,.4-.42.52-.23.99.22.34.32.02.8-.21.67-.11-.06-.22-.19-.51-.1-.67.22-.93-.31-1.03-.41-.1-.1-.59-.54-.68-.07-.1.46.39.78.51.78s.29-.14.45.04c.13.15.03.27-.14.53-.18.26.02.77.43.38.12-.11.32-.17.34,0,.02.17.1.22-.39.34-.36.09-.64.41-.77.58h5.63v-8.03h-5.98l8.05-14.2v10.2c.07-.09.52-.59.84-.52.34.08.4.09.48-.01.08-.1.05-.26-.13-.44-.18-.17.34-.36.29-.59-.17-.87.76-.15.72.3-.02.34.15.43.28.46.15.04.61.05.18.59-.17.22-.04.46.13.54.16.07.54.22.75-.14.21-.36.43-.47.58-.49.15-.01.31.01.36.24.05.22.34.27.34.27,0,0,.43.14.21.62s-.77-.05-.77-.05c0,0-.18-.2-.35-.24-.08-.02-.25-.07-.42.08-.16.15-.23.78-.18,1.02.05.24.07.44-.29.55-.35.11-.45-.09-.57-.16-.13-.07-.16.17-.33.16-.21-.01-.3-.02-.43-.04-.08-.01-.3-.05-.43.15-.13.2.05.36.05.36,0,0,.29.44-.12.42-.36-.02-.38.53-.38.53,0,0-.01.27.12.45.06.09.06.21.06.21,0,0,.07.36.36.33.19-.02.19.28.14.52-.02.09-1.45-1.31-1.51-1.37v14.76h1.5s.23-.2.19-.41c0,0-.02-.14-.12-.19-.1-.05-.04-.21.11-.25.14-.04.2-.04.26.04.06.07.23.1.45-.06.22-.16.47-.11.47-.11,0,0,.35.03.33-.25s-.25-.41-.04-.52c.19-.1.4-.03.46.05.06.07.12.14.28.13.16-.01.19.05.13.2-.06.15-.34.24-.62.4-.28.16-.4.49-.51.99h.7s.04-.7.31-.9c.28-.2.35-.04.39,0,.04.04.16.19.33.14.17-.05.19-.2.24-.27.05-.08.32-.66.96-.55.69.12.52.32.52.32,0,0-.09.14-.27.02-.18-.11-.31-.08-.41-.02-.1.06-.13.27-.25.3-.12.03-.22.07-.23.25-.01.17.05.47.25.52,0,0,.25-.17.68.19h0c.21-.41.62-.66,1-.76.39-.1.75.05.75.05v-.43c-.16.04-.36-.09-.43-.14-.07-.05-.11-.12.01-.32.12-.2.42-.34.42-.34v-1.6c-.08,0-.11-.06-.19.06-.08.12-.18.31-.29.35-.11.04-.16-.07-.18-.14-.02-.06-.05-.05-.11-.14-.06-.09-.3-.16-.4-.06-.12.12-.1.37-.26.19-.16-.18-.11-.25-.13-.51-.02-.26.21-.14.21-.14.4.15.7-.01.81-.15.11-.14.08-.23.2-.51.12-.27.33-.28.33-.28h0v-1.62h1.63c.07-.23.35.02.42-.08.07-.1-.13-.16-.18-.27-.05-.12-.08-.17-.18-.28-.07-.08-.15-.3,0-.33.18-.03.29.05.62.3.33.25.44.23.66.3.22.07.35.26.42.37h.2v-7.99h-3.58Z"></path><path class="cls-1" d="M84.38,24.44s-.22.16-.38-.07c-.16-.23-.02-.52-.02-.52.14-.08.31.14.31.14.22.22.09.44.09.44M83.6,23.04s-.15-.15-.23-.16c-.08-.01-.05-.08-.03-.26,0,0,.09-.21-.05-.34,0,0-.23-.16-.19-.42.05-.36.28-.08.28-.08,0,0,.45.37.46,1.08.01.71-.24.18-.24.18M83.14,12.59c-.1-.13-.04-.27-.04-.27.14-.11.52.27.52.27.22.22.17.46.04.68-.13.22-.04.59-.03.6.19.21.01.45.01.45-.23.13-.53-.37-.53-.37-.17-.37-.01-.83-.01-.83.22-.3.07-.5.04-.54M81.76,22.62c-.07.04-.32-.02-.39-.4-.07-.38.14-.74.14-.74-.06.25.27.64.27.64.23.27.11.42-.03.5M81.19,12.62c-.18-.11-.02-.43-.02-.43.13-.29.4-.19.4-.19.13.09.1.2.05.27-.06.06-.08.09-.14.2-.06.11-.12.27-.29.16M81.13,16.13c-.26.08-.41-.13-.41-.13-.26-.47.01-.65.01-.65.2-.13.44.17.44.17.1.08.21.52-.04.61M80.53,29.95c-.16.09-.3-.05-.3-.05-.19-.12-.11-.28-.11-.28.11-.12.24,0,.24,0,.14.08.33.23.17.33M79.93,30.78s-.13-.02-.17.14c-.05.16-.21.17-.29.17s-.13-.22-.24-.28c-.11-.06-.4-.25-.62-.02-.22.23-.28.13-.58-.06-.3-.19-.46-.06-.62.03-.16.09-.36.36-.87.18-.38-.14-.25-.34-.15-.44.23-.22.52,0,.69-.09.23-.13.16-.38.57-.2,0,0,.57.41.87.15,0,0,.08-.16-.12-.4-.09-.1,0-.36.2-.39.21-.03.51.06.75.34.24.28.27.51.52.38.29-.16.54.04.52.11-.02.08-.03.36-.48.35M72.48,3.72c-.19.06-.32.14-.32.14-.15.21.57.57.57.57-1.55-.08-1.73-.47-1.34-.72.24-.15.12-.8-.31-.49-.09.07-.23.29-.34.28-.23-.02-.03-.2.03-.31.06-.11,0-.26-.03-.38-.05-.19.09-.32.13-.34.21-.1.14.32.31.23.17-.09.25-.29.11-.47-.05-.07-.16-.25-.08-.44.06-.15.23,0,.38.09.24.13.41-.07.6-.12.19-.05.29.02.31.09.03.06.11.1.11.1.3.11.2.25.2.25,0,0-.08.02-.05.17.03.15-.14.06-.28.02-.14-.04-.36-.16-.38.08-.02.25.2.36.41.41.21.05.33.23.36.43.03.2-.21.36-.4.42M75.78,27.03c.03-.31.31-.42.62-.61.31-.19.05-.54.05-.54,0,0-.14-.23-.07-.48.07-.25.26-.22.33-.19.07.03.11.08.35.33.24.25.34,0,.46-.02.12-.02.18.02.13.22-.05.2-.09.26-.25.31-.15.05-.17.03-.19.2-.02.17.01.11-.07.26-.08.16-.05.12-.08.3-.03.17-.07.22-.07.22-.12.75.15.92.18.95.18.16.47.39.47.39.48.37.9,1.09.84,1.1-.06.02-.18-.08-.34-.22-.15-.14-.23-.05-.29-.03-.06.02-.17.02-.26-.11-.08-.12-.14-.11-.28-.14-.13-.03-.27-.09-.27-.09,0,0-.34-.26-.49-.92-.15-.65-.39-.65-.54-.65s-.27.03-.24-.28M62.2,3.84c.12.13.04.23-.07.2-.06-.01-.12-.09-.27-.24s-.15.07-.39.08c-.07,0-.11-.16-.2-.21-.09-.05-.15.08-.18.13-.03.05-.03.18-.33.15-.28-.03-.84-.7-1.07-.97-.19-.22-.29-.43-.18-.46.11-.03.2.01.26.05.19.1.29.17.5.15.21-.02.22.12.39.27.17.15.27.05.3-.03.03-.08.04-.11.09-.13.04-.02.08,0,.11.05.08.12.2.2.2.2.28.12.36-.17.46-.19.1-.02.25-.1.41.11.16.2-.04.39-.12.54-.09.15.1.32.1.32M62.32,11.86c.67.17.61.51.6.66-.02.15-.2.44-.61.19-.41-.24-.39-.75-.39-.75.07-.36.41-.1.41-.1M78.42,20.16c.38-.07.57.05.57.28s.12.46.22.65c.1.18.1.28-.03.3s-.22-.17-.33-.31c-.12-.15-.17-.17-.45-.2-.28-.03-.3-.2-.32-.28-.07-.33.35-.43.35-.43M74.78,7.66c-.07.02-.19.05-.39-.03-.19-.08-.16-.34-.18-.46-.03-.13-.12-.23-.39-.26-.27-.03-.36-.34-.36-.34-.02-.2.16-.14.32-.14.15,0,.15-.14.38-.16.23-.02.17.27.2.41.03.14.05.24.13.39.08.15.17.24.34.35.17.11.01.22-.05.24M72.45,6.84c-.07.12-.23.08-.32.03-.08-.05-.06-.18-.17-.27-.06-.05-.25-.09-.46-.05-.2.04-.16-.29-.19-.44-.03-.15-.19-.53-.62-.6-.43-.07-.58-.31-.58-.31-.05-.1-.07-.21,0-.31.07-.09.23-.1.33-.03.1.07.12.07.37.1.25.03.32.08.38.4.07.31.02.23.57.17.55-.07.15.24.14.37-.02.21.17.33.43.47.17.09.2.35.13.46M69.72,3.61c-.18.22-.33.1-.33.02s.03-.08-.1-.26c-.13-.18-.13-.3-.13-.3.1-.25.25-.08.4-.02.15.07.35.35.17.56M59,6.75c-.1-.08-.2-.14-.2-.14-.26-.12-.16-.32-.16-.32,0-.2-.14-.3-.14-.3-.02-.12-.02-.38.26-.22.28.16.67.56.63.87-.04.3-.28.2-.38.12M60.58,10.08c-.07-.2-.3-.65-.3-.65-.03-.32.53-.16.53-.16.5.35.54.79.54.79.08.35.3,1.12.3,1.12-.6-.27-1-.89-1.07-1.09M60.22,8.19c-.12.12-.26,0-.26,0-.2-.24-.02-.4-.02-.4.1-.14.26.08.26.08.1.12.02.32.02.32M59.68,9.78c-.44.17-.61-.13-.61-.13-.17-.44.1-.6.1-.6.37-.17.51.13.51.13.3.3,0,.6,0,.6M58.62,8.3c-.14-.17.03-.2-.34-.4-.37-.2-.37-.91-.37-.91.03-.6.88,0,.88,0,.51.23.68.87.47,1.28-.2.4-.51.2-.64.03M78.63,15.8s-.23.07-.31-.36c-.08-.43-.12-.46-.19-.55-.07-.1-.16-.28-.1-.36,0,0,.06-.01.14.01,0,0,.31.15.54.99,0,0,.05.22-.08.26M76.77,6.67c-.25.13-.62-.25-.62-.25-.28-.25-.08-.43-.08-.43.28-.07.6.2.6.2.37.33.1.48.1.48M85.48,13.51c-.11-.19-.23-.58-.49-1.2-.28-.66-.53-.3-.53-.3,0,0-.62.43-.57-.93.05-1.36-.38-2.5-.4-2.62-.02-.12-.15-.05-.28.05-.13.1-.41.04-.46-.09-.05-.13-.2-.35-.33-.41-.13-.07-.78-.25-.78,0,0,.2.03.35.61.65.58.3.62.7.49.86q-.13.17-.12.53c.02.36-.22.45-.47.5-.25.05-.32.17-.38.35-.07.18-.21.48-.34.49-.13,0-.21-.04-.46-.42-.25-.38-.67-.3-.83-.35-.17-.05-.37-.28-.38-.56-.02-.28-.13-.19-.28-.2-.16,0-.23-.03-.33-.17-.1-.13-.03-.58.1-.66.13-.08.28-.28.35-.41.07-.13.18-.15.4-.03.22.12.28.03.32-.18.03-.21.2-.36.2-.36.23-.35.1-.81-.05-1.03-.15-.22-.29-.23-.3-.13-.02.15-.13.23-.27.24-.37,0-.45.13-.58.34-.13.21-.27.73-.38.85-.36.36-1.06-.34-1.1-.43,0,0-.19-.25.16-.59.36-.34.03-.64.03-.64,0,0-.2-.15.03-.39.17-.18-.11-.46-.25-.51-.32-.12-.44-.67-.44-.67,0,0-.06-.61.36-.77.3-.12.38.12.38.36s.13.55.13.55c.28.61.85.79,1.06.76.22-.03.42-.05.68.18.27.23.6.54.65.44.05-.1.09-.14-.11-.6-.2-.46-.37-.18-.37-.18,0,0-.12.15-.27-.05-.15-.2-.17-.26-.08-.35.08-.08.19-.21.14-.32-.05-.12-.1-.21-.28-.45-.18-.25-.4-.13-.53-.03-.13.1-.28.12-.42,0-.13-.12-.23-.23-.33-.4-.1-.17,0-.28.13-.27.13.02.38,0,.43-.08.05-.08,0-.3-.2-.6-.2-.3-.43-.28-.8-.33-.37-.05-.38-.13-.46-.26-.08-.13-.22-.13-.25-.02-.03.12-.07.13-.17.13-.16,0-.29-.22-.32-.47-.03-.25-.29-.6-.29-.6-.08-.29-.52-.55-.96-.75-1.69-.66-3.51-.99-5.48-.99h-2.91v7.93h2.83c2.05,0,3.75.98,5.08,2.93,1.16,1.71,1.82,3.86,1.96,6.44,0,0,0,0,0,0l.83,1.07s.41.2.51-.05c.26-.65.73-.33.93-.07.2.26.39-.02.36-.29-.03-.26,0-.44-.31-.68-.3-.23-.6-.72-.16-.62.43.1.54.27.67-.03.13-.3.2-.2.4-.13.2.07.33.3.07.6-.27.3-.13.36,0,.53.13.17.2.3.03.43-.17.13-.07.33.17.36.23.03.37.2.1.5-.27.3-.33.7.07,1.03.4.33.7.63.5,1.56,0,0-.12-.4-.55-.6-.25-.11,0-.43-.05-.63-.05-.2-.38-.59-.83-.34-.36.19-.62.14-.59-.23.05-.52,1.29-.69.23-.93-.52-.12-.9.06-1.13.18-.09.05-.14.16-.1.26.05.14-.18.27-.41,0,0,0-.1-.49-.57-.07l-.16.12c-.11,2.72-.77,4.96-1.98,6.73-1.33,1.95-3.02,2.93-5.08,2.93h-3.02s-1.87,0-1.87,0V0h-6.28v.11c-.16.11-.07.13-.12.3-.05.17-.16.18-.26.06-.06-.07-.2-.11-.26-.1-.13.03-.17.2-.12.33.13.33-.05.34-.05.34,0,0-.4.21-.02.46.23.15.39.39.17.56-.18.14-.22.29-.22.29-.18.52-.03,1.02.1,1.25.13.23-.12.54-.07.96.03.3.44.43.21.79-.5.8-.7,1.66-.7,1.66-.66-.42.2-1.06.1-1.5-.05-.23.07-.56-.07-.76-.13-.2-.47-.2-.63.1-.17.3-.35.36-.35.36v1.56s.29.36.42.53c.13.17.13.36.17.66.03.3.73.93.73.93.52.4.26.8.16,1.09-.1.31-.47.27-.59.13-.24-.26-.12-.48-.29-.71-.17-.23-.59-.38-.59-.38h-.08v27.75h13.61c4.54,0,8.33-1.76,11.38-5.28.31-.35.59-.72.87-1.09-.15-.25-.55-1.03-.18-1.86.36-.79.06-.82-.04-1.24,0,0-.15-.29.07-.51s.44-.54.44-.87c0,0-.11-.58.09-.67,0,0,.31-.33.79-.32.47.02.83.11.92.33.08.21-.04.51-.05.81-.01.3.1.51.1.51.07-.18.14-.31.21-.41.91-2.35,1.37-4.95,1.37-7.8,0-1.72-.17-3.34-.5-4.88"></path><path class="cls-1" d="M83.69,26.93c-.31.05-.54.29-.54.52,0,.35-.2.46-.32.75-.47,1.08.01,1.41.01,1.41.57-.87.97-1.59,1.41-2.6,0,0-.25-.14-.56-.08"></path><path class="cls-1" d="M84.62,11.33s.13-.42,0-.66c0,0-.08-.4-.35-.13,0,0-.3.29-.06.77.04.07.22.37.41.02"></path><path class="cls-1" d="M80.16,9.15s-.16.48.39.66c.08.03.47.11.47-.33,0,0-.05-.35-.39-.53,0,0-.33-.25-.47.19"></path></g></g></g></svg>